<svg width="17" height="16" viewBox="0 0 17 16" fill="none" xmlns="http://www.w3.org/2000/svg">
<path d="M14.2071 9.70711C14.5976 9.31658 14.5976 8.68342 14.2071 8.29289C13.8166 7.90237 13.1834 7.90237 12.7929 8.29289L14.2071 9.70711ZM8.5 14L7.79289 14.7071C8.18342 15.0976 8.81658 15.0976 9.20711 14.7071L8.5 14ZM4.20711 8.29289C3.81658 7.90237 3.18342 7.90237 2.79289 8.29289C2.40237 8.68342 2.40237 9.31658 2.79289 9.70711L4.20711 8.29289ZM12.7929 8.29289L7.79289 13.2929L9.20711 14.7071L14.2071 9.70711L12.7929 8.29289ZM9.20711 13.2929L4.20711 8.29289L2.79289 9.70711L7.79289 14.7071L9.20711 13.2929Z" fill="#FF6A55"/>
<path d="M8.5 2L8.5 14" stroke="#FF6A55" stroke-width="2" stroke-linecap="round"/>
</svg>
