<svg width="48" height="48" viewBox="0 0 48 48" fill="none" xmlns="http://www.w3.org/2000/svg">
<rect width="48" height="48" rx="24" fill="#1A1D1F"/>
<rect x="14.9966" y="14.9961" width="18.0075" height="18.0075" rx="5" stroke="white" stroke-width="1.5" stroke-linecap="round" stroke-linejoin="round"/>
<path d="M27.3246 20.3216L27.325 20.3212C27.4228 20.2237 27.5811 20.2238 27.6786 20.3215C27.7762 20.4192 27.7762 20.5775 27.6785 20.6751C27.5809 20.7727 27.4226 20.7728 27.3249 20.6752C27.2272 20.5777 27.2271 20.4194 27.3246 20.3216" stroke="white" stroke-width="1.5" stroke-linecap="round" stroke-linejoin="round"/>
<path d="M33.0041 22.1662V23.2052C33.0041 24.4774 32.4987 25.6975 31.5992 26.597C30.6996 27.4966 29.4795 28.0019 28.2073 28.0019V28.0019C26.8071 28.0019 25.4767 27.3901 24.5654 26.3269L21.0242 22.1955C20.3733 21.4361 19.423 20.999 18.4228 20.999V20.999C16.5306 20.999 14.9966 22.533 14.9966 24.4253V26.8348" stroke="white" stroke-width="1.5" stroke-linecap="round" stroke-linejoin="round"/>
</svg>
