<svg width="20" height="20" viewBox="0 0 20 20" fill="none" xmlns="http://www.w3.org/2000/svg">
<rect x="2.49805" y="2.49683" width="15.0062" height="15.0062" rx="5" stroke="#83909D" stroke-width="1.5" stroke-linecap="round" stroke-linejoin="round"/>
<path d="M12.7712 6.93494L12.7716 6.93456C12.8531 6.85331 12.985 6.85343 13.0663 6.93484C13.1476 7.01625 13.1475 7.14814 13.0662 7.2295C12.9848 7.31086 12.8529 7.3109 12.7715 7.22959C12.6901 7.14829 12.69 7.0164 12.7712 6.93494" stroke="#83909D" stroke-width="1.5" stroke-linecap="round" stroke-linejoin="round"/>
<path d="M17.5043 8.47167V9.33751C17.5043 10.3977 17.0832 11.4144 16.3335 12.164C15.5839 12.9137 14.5672 13.3348 13.507 13.3348V13.3348C12.3401 13.3348 11.2315 12.8249 10.4721 11.9389L7.52107 8.49611C6.97864 7.86325 6.18675 7.49902 5.35324 7.49902V7.49902C3.77636 7.49902 2.49805 8.77734 2.49805 10.3542V12.3622" stroke="#83909D" stroke-width="1.5" stroke-linecap="round" stroke-linejoin="round"/>
</svg>
