<svg width="20" height="20" viewBox="0 0 20 20" fill="none" xmlns="http://www.w3.org/2000/svg">
<path fill-rule="evenodd" clip-rule="evenodd" d="M6.66602 3.33317L7.74935 1.979C7.90768 1.7815 8.14685 1.6665 8.40018 1.6665H11.5993C11.8527 1.6665 12.0918 1.7815 12.2502 1.979L13.3327 3.33317V3.33317V4.1665C13.3327 4.6265 12.9593 4.99984 12.4993 4.99984H7.49935C7.03935 4.99984 6.66602 4.6265 6.66602 4.1665V3.33317V3.33317H6.66602Z" stroke="#242328" stroke-width="1.5" stroke-linecap="round" stroke-linejoin="round"/>
<path d="M6.66732 3.3335H5.00065C4.07982 3.3335 3.33398 4.07933 3.33398 5.00016V15.8335C3.33398 16.7543 4.07982 17.5002 5.00065 17.5002H15.0006C15.9215 17.5002 16.6673 16.7543 16.6673 15.8335V5.00016C16.6673 4.07933 15.9215 3.3335 15.0006 3.3335H13.334" stroke="#242328" stroke-width="1.5" stroke-linecap="round" stroke-linejoin="round"/>
<path d="M6.66602 9.16667H13.3327" stroke="#242328" stroke-width="1.5" stroke-linecap="round" stroke-linejoin="round"/>
<path d="M6.66602 13.3332H13.3327" stroke="#242328" stroke-width="1.5" stroke-linecap="round" stroke-linejoin="round"/>
</svg>
