<svg width="49" height="48" viewBox="0 0 49 48" fill="none" xmlns="http://www.w3.org/2000/svg">
<rect x="0.5" width="48" height="48" rx="24" fill="#1A1D1F"/>
<path d="M14.5 31C14.5 28.8 16.3 27 18.5 27H22.5C24.7 27 26.5 28.8 26.5 31" stroke="white" stroke-width="1.5" stroke-linecap="round" stroke-linejoin="round"/>
<path d="M23.0002 18.0002C24.4002 19.4002 24.4002 21.6002 23.0002 22.9002C21.6002 24.2002 19.4002 24.3002 18.1002 22.9002C16.8002 21.5002 16.7002 19.4002 18.0002 18.0002C19.3002 16.6002 21.6002 16.7002 23.0002 18.0002" stroke="white" stroke-width="1.5" stroke-linecap="round" stroke-linejoin="round"/>
<path d="M28.5 26H31.5C33.2 26 34.5 27.3 34.5 29" stroke="white" stroke-width="1.5" stroke-linecap="round" stroke-linejoin="round"/>
<path d="M31.7999 18.7004C32.7999 19.7004 32.7999 21.3004 31.7999 22.2004C30.7999 23.1004 29.1999 23.2004 28.2999 22.2004C27.3999 21.2004 27.2999 19.6004 28.2999 18.7004C29.1999 17.8004 30.7999 17.8004 31.7999 18.7004" stroke="white" stroke-width="1.5" stroke-linecap="round" stroke-linejoin="round"/>
</svg>
