<svg width="20" height="20" viewBox="0 0 20 20" fill="none" xmlns="http://www.w3.org/2000/svg">
<path fill-rule="evenodd" clip-rule="evenodd" d="M5.83268 17.5H14.5827C15.7333 17.5 16.666 16.5673 16.666 15.4167V6.97639C16.666 6.31335 16.4026 5.67747 15.9338 5.20862L13.9574 3.23223C13.4885 2.76339 12.8527 2.5 12.1896 2.5H6.24935C5.09876 2.5 4.16602 3.43274 4.16602 4.58333V15.8333C4.16602 16.7538 4.91221 17.5 5.83268 17.5Z" stroke="#83909D" stroke-width="1.5" stroke-linecap="round" stroke-linejoin="round"/>
<path d="M16.647 6.66651H13.75C13.0596 6.66651 12.5 6.10687 12.5 5.41651V2.51953" stroke="#83909D" stroke-width="1.5" stroke-linecap="round" stroke-linejoin="round"/>
<path d="M13.334 10.0002H10.209" stroke="#83909D" stroke-width="1.5" stroke-linecap="round" stroke-linejoin="round"/>
<path d="M13.334 13.3332H10.209" stroke="#83909D" stroke-width="1.5" stroke-linecap="round" stroke-linejoin="round"/>
<path d="M7.50065 9.896C7.44312 9.896 7.39648 9.94263 7.39648 10.0002C7.39648 10.0577 7.44312 10.1043 7.50065 10.1043C7.55818 10.1043 7.60482 10.0577 7.60482 10.0002C7.60482 9.94263 7.55818 9.896 7.50065 9.896" stroke="#83909D" stroke-width="1.5" stroke-linecap="round" stroke-linejoin="round"/>
<path d="M7.50065 13.229C7.44312 13.229 7.39648 13.2756 7.39648 13.3332C7.39648 13.3907 7.44312 13.4373 7.50065 13.4373C7.55818 13.4373 7.60482 13.3907 7.60482 13.3332C7.60482 13.2756 7.55818 13.229 7.50065 13.229" stroke="#83909D" stroke-width="1.5" stroke-linecap="round" stroke-linejoin="round"/>
</svg>
