<svg width="20" height="20" viewBox="0 0 20 20" fill="none" xmlns="http://www.w3.org/2000/svg">
<path d="M7.5 6.68002H12.5021" stroke="#83909D" stroke-width="1.5" stroke-linecap="round" stroke-linejoin="round"/>
<path d="M7.5 9.99985H10.001" stroke="#83909D" stroke-width="1.5" stroke-linecap="round" stroke-linejoin="round"/>
<path d="M3.74805 3.33057H13.3354C14.2562 3.33057 15.0027 4.07707 15.0027 4.99793V13.3347" stroke="#83909D" stroke-width="1.5" stroke-linecap="round" stroke-linejoin="round"/>
<path d="M6.24961 16.6695H15.8369C16.7578 16.6695 17.5043 15.923 17.5043 15.0021V14.1684C17.5043 13.708 17.131 13.3347 16.6706 13.3347H8.33381C7.87338 13.3347 7.50013 13.708 7.50013 14.1684V15.4189C7.50013 16.1096 6.94025 16.6695 6.24961 16.6695V16.6695C5.55897 16.6695 4.99909 16.1096 4.99909 15.4189V4.58109C4.99909 3.89044 4.43921 3.33057 3.74857 3.33057V3.33057C3.05792 3.33057 2.49805 3.89044 2.49805 4.58109V6.66529C2.49805 7.12572 2.8713 7.49897 3.33173 7.49897H4.99909" stroke="#83909D" stroke-width="1.5" stroke-linecap="round" stroke-linejoin="round"/>
</svg>
