<svg width="20" height="20" viewBox="0 0 20 20" fill="none" xmlns="http://www.w3.org/2000/svg">
<path d="M11.7674 8.23313C12.7433 9.20896 12.7433 10.7931 11.7674 11.7706C10.7916 12.7465 9.20742 12.7465 8.22992 11.7706C7.25409 10.7948 7.25409 9.21063 8.22992 8.23313C9.20742 7.25563 10.7908 7.25563 11.7674 8.23313" stroke="#83909D" stroke-width="1.5" stroke-linecap="round" stroke-linejoin="round"/>
<path fill-rule="evenodd" clip-rule="evenodd" d="M2.5 9.99984C2.5 9.45067 2.62667 8.90734 2.87167 8.4065V8.4065C4.13417 5.82567 6.92417 4.1665 10 4.1665C13.0758 4.1665 15.8658 5.82567 17.1283 8.4065V8.4065C17.3733 8.90734 17.5 9.45067 17.5 9.99984C17.5 10.549 17.3733 11.0923 17.1283 11.5932V11.5932C15.8658 14.174 13.0758 15.8332 10 15.8332C6.92417 15.8332 4.13417 14.174 2.87167 11.5932V11.5932C2.62667 11.0923 2.5 10.549 2.5 9.99984Z" stroke="#83909D" stroke-width="1.5" stroke-linecap="round" stroke-linejoin="round"/>
</svg>
