<svg width="14" height="14" viewBox="0 0 14 14" fill="none" xmlns="http://www.w3.org/2000/svg">
<path fill-rule="evenodd" clip-rule="evenodd" d="M13.6668 6.99967C13.6668 10.6816 10.6821 13.6663 7.00016 13.6663C3.31826 13.6663 0.333496 10.6816 0.333496 6.99967C0.333496 3.31778 3.31826 0.333008 7.00016 0.333008C10.6821 0.333008 13.6668 3.31778 13.6668 6.99967ZM7.00016 6.33301C7.36835 6.33301 7.66683 6.63148 7.66683 6.99967V10.3336C7.66683 10.7018 7.36835 11.0003 7.00016 11.0003C6.63197 11.0003 6.3335 10.7018 6.3335 10.3336V6.99967C6.3335 6.63148 6.63197 6.33301 7.00016 6.33301ZM7.00016 4.99967C7.36835 4.99967 7.66683 4.7012 7.66683 4.33301C7.66683 3.96482 7.36835 3.66634 7.00016 3.66634C6.63197 3.66634 6.3335 3.96482 6.3335 4.33301C6.3335 4.7012 6.63197 4.99967 7.00016 4.99967Z" fill="#33383F"/>
</svg>
