<svg width="20" height="20" viewBox="0 0 20 20" fill="none" xmlns="http://www.w3.org/2000/svg">
<path fill-rule="evenodd" clip-rule="evenodd" d="M14.1696 17.5031H5.83277C3.99105 17.5031 2.49805 16.0101 2.49805 14.1683V7.4989C2.49805 6.57805 3.24455 5.83154 4.16541 5.83154H15.8369C16.7578 5.83154 17.5043 6.57805 17.5043 7.4989V14.1683C17.5043 16.0101 16.0113 17.5031 14.1696 17.5031Z" stroke="#83909D" stroke-width="1.5" stroke-linecap="round" stroke-linejoin="round"/>
<path d="M6.66602 5.83155V4.16419C6.66602 3.24333 7.41252 2.49683 8.33338 2.49683H11.6681C12.589 2.49683 13.3355 3.24333 13.3355 4.16419V5.83155" stroke="#83909D" stroke-width="1.5" stroke-linecap="round" stroke-linejoin="round"/>
<rect x="8.33203" y="9.16626" width="3.33472" height="2.50104" rx="0.5" stroke="#83909D" stroke-width="1.5" stroke-linecap="round" stroke-linejoin="round"/>
<path d="M11.668 10.4169H14.5859C16.1974 10.4169 17.5037 9.11053 17.5037 7.49902V7.49902" stroke="#83909D" stroke-width="1.5" stroke-linecap="round" stroke-linejoin="round"/>
<path d="M8.33381 10.4169H5.41593C3.80443 10.4169 2.49805 9.11053 2.49805 7.49902V7.49902" stroke="#83909D" stroke-width="1.5" stroke-linecap="round" stroke-linejoin="round"/>
</svg>
