<svg width="16" height="16" viewBox="0 0 16 16" fill="none" xmlns="http://www.w3.org/2000/svg">
<path d="M2.29289 6.29289C1.90237 6.68342 1.90237 7.31658 2.29289 7.70711C2.68342 8.09763 3.31658 8.09763 3.70711 7.70711L2.29289 6.29289ZM8 2L8.70711 1.29289C8.31658 0.902369 7.68342 0.902369 7.29289 1.29289L8 2ZM12.2929 7.70711C12.6834 8.09763 13.3166 8.09763 13.7071 7.70711C14.0976 7.31658 14.0976 6.68342 13.7071 6.29289L12.2929 7.70711ZM3.70711 7.70711L8.70711 2.70711L7.29289 1.29289L2.29289 6.29289L3.70711 7.70711ZM7.29289 2.70711L12.2929 7.70711L13.7071 6.29289L8.70711 1.29289L7.29289 2.70711Z" fill="#83BF6E"/>
<path d="M8 14V2" stroke="#83BF6E" stroke-width="2" stroke-linecap="round"/>
</svg>
